<?xml version="1.0" encoding="UTF-8"?>
<svg version="1.1" xmlns="http://www.w3.org/2000/svg" width="792" height="172">
<path d="M0 0 C261.36 0 522.72 0 792 0 C792 56.76 792 113.52 792 172 C530.64 172 269.28 172 0 172 C0 115.24 0 58.48 0 0 Z " fill="#FDFDFD" transform="translate(0,0)"/>
<path d="M0 0 C4.39892371 1.97419229 8.47144746 4.35506852 12.57470703 6.87866211 C14.48500537 8.05328 16.40997678 9.19967591 18.33984375 10.34179688 C41.57504048 24.22238365 41.57504048 24.22238365 45 35 C45.23469978 37.7045594 45.37475415 40.30566927 45.40625 43.01171875 C45.41765015 43.77998489 45.42905029 44.54825104 45.4407959 45.33979797 C45.45963424 46.96272327 45.47273933 48.58572401 45.48046875 50.20874023 C45.49980968 52.66334577 45.56186032 55.11454424 45.625 57.56835938 C45.75293767 66.6032667 45.60004749 74.10154611 39 81 C35.87180205 83.7257041 32.5552983 85.8708993 29 88 C27.91074219 88.66741211 26.82148437 89.33482422 25.69921875 90.02246094 C22.15491985 92.1780703 18.57942815 94.27843664 15 96.375 C13.76150727 97.10511013 12.52322476 97.83557699 11.28515625 98.56640625 C0.11261113 105.15022748 0.11261113 105.15022748 -4.375 105.1875 C-5.53128906 105.20876953 -5.53128906 105.20876953 -6.7109375 105.23046875 C-10.8058083 104.81818654 -12.46076617 103.65562376 -15.08822632 100.46104431 C-17.47143831 96.14651567 -17.57927862 93.09552803 -17.54931641 88.26000977 C-17.55953827 87.40230988 -17.56976013 86.54460999 -17.58029175 85.66091919 C-17.60799731 82.837461 -17.60617752 80.01498386 -17.6015625 77.19140625 C-17.6093409 75.22134542 -17.61801117 73.25128792 -17.62753296 71.28123474 C-17.64243843 67.15637326 -17.64188873 63.0318542 -17.63134766 58.90698242 C-17.61975665 53.62961769 -17.65362958 48.35365648 -17.700037 43.07652378 C-17.72954762 39.00916903 -17.73125049 34.94215102 -17.72501755 30.87470818 C-17.72604208 28.92949581 -17.73648231 26.98426413 -17.75664139 25.03915596 C-17.78141215 22.31497964 -17.76777133 19.59351992 -17.74462891 16.86938477 C-17.75991638 16.07176224 -17.77520386 15.27413971 -17.79095459 14.4523468 C-17.68929794 9.01893366 -16.2043825 6.2595575 -12.48163414 2.31709194 C-8.8186134 -0.93913372 -4.60594412 -0.86876216 0 0 Z " fill="#FA776C" transform="translate(30,35)"/>
<path d="M0 0 C1.20759727 -0.02893593 1.20759727 -0.02893593 2.43959045 -0.05845642 C6.12861982 -0.11681577 9.81746617 -0.16551582 13.50683594 -0.19628906 C15.4415886 -0.21779889 17.37624582 -0.25181784 19.31054688 -0.29882812 C32.34988488 -0.61234348 41.50611385 -0.26828733 51.70092773 8.70483398 C52.41506836 9.53112305 53.12920898 10.35741211 53.86499023 11.20874023 C54.79189215 12.20223185 55.72173393 13.19298644 56.65405273 14.18139648 C57.60055052 15.21025526 58.5458548 16.24021321 59.48999023 17.27124023 C59.96694336 17.78750977 60.44389648 18.3037793 60.93530273 18.83569336 C67.69407904 26.20463697 67.69407904 26.20463697 68.36499023 30.14624023 C67.66573788 34.42916093 66.3224518 35.59991785 62.86499023 38.20874023 C59.43012259 38.94775216 56.05719246 38.89208507 52.55444336 38.85571289 C51.51811264 38.86447449 50.48178192 38.87323608 49.41404724 38.88226318 C45.99101806 38.90425609 42.56928238 38.88970373 39.14624023 38.87280273 C36.76639559 38.87617087 34.38655262 38.88102346 32.00671387 38.88729858 C27.02001563 38.89466982 22.03376531 38.88395563 17.04711914 38.8605957 C10.65431312 38.83210862 4.26255663 38.84851113 -2.13021088 38.87845802 C-7.04416821 38.89652371 -11.95787661 38.89077612 -16.87184143 38.87781906 C-19.22896956 38.87448308 -21.58612028 38.87857883 -23.94322205 38.89021683 C-27.23757814 38.90291272 -30.53023352 38.88356376 -33.82446289 38.85571289 C-34.79916031 38.86583405 -35.77385773 38.8759552 -36.77809143 38.88638306 C-41.38541129 38.81420316 -43.47273767 38.71054692 -47.24035645 35.85580444 C-49.13500977 33.20874023 -49.13500977 33.20874023 -49.76000977 30.20874023 C-48.71937403 25.21368869 -45.14511833 22.8774805 -41.01635742 20.14404297 C-39.86521492 19.46886861 -38.70920824 18.80193537 -37.54907227 18.14233398 C-36.92906342 17.78156265 -36.30905457 17.42079132 -35.67025757 17.04908752 C-33.7043298 15.90744401 -31.73237213 14.77672293 -29.76000977 13.64624023 C-28.44449301 12.88458261 -27.12938502 12.12221852 -25.81469727 11.35913086 C-22.2604205 9.29909024 -18.69943143 7.25118425 -15.13500977 5.20874023 C-14.52695496 4.84604034 -13.91890015 4.48334045 -13.29241943 4.10964966 C-8.72351104 1.41091739 -5.26560839 0.11873914 0 0 Z " fill="#644FF5" transform="translate(82.135009765625,124.791259765625)"/>
<path d="M0 0 C1.05729813 -0.00700928 2.11459625 -0.01401855 3.20393372 -0.02124023 C6.70197748 -0.03885823 10.19921351 -0.02718335 13.69726562 -0.01367188 C16.12577469 -0.01636568 18.55428271 -0.02024716 20.98278809 -0.02526855 C26.07375349 -0.03116879 31.16443828 -0.02258336 36.25537109 -0.00390625 C42.78605231 0.01888312 49.31607601 0.00576292 55.84673309 -0.01819611 C60.8618466 -0.03263961 65.87680382 -0.02805464 70.891922 -0.01768494 C73.30011574 -0.01501367 75.7083236 -0.01830139 78.11650085 -0.02760315 C81.48039416 -0.03774446 84.84321777 -0.02230015 88.20703125 0 C89.20559647 -0.00809692 90.20416168 -0.01619385 91.23298645 -0.02453613 C97.95988195 0.05821869 97.95988195 0.05821869 101.21032715 2.37805176 C102.60351562 4.51757812 102.60351562 4.51757812 103.29101562 7.26757812 C102.22843016 12.2907094 99.09039012 14.8854172 95.60351562 18.51757812 C94.75789063 19.49726563 93.91226563 20.47695313 93.04101562 21.48632812 C87.57292057 27.8084445 82.18055899 32.76612613 74.60351562 36.51757812 C73.61351563 37.01257812 73.61351563 37.01257812 72.60351562 37.51757812 C69.58546706 37.65372081 66.59176837 37.7304264 63.57226562 37.75585938 C62.66657837 37.76393112 61.76089111 37.77200287 60.82775879 37.78031921 C58.90439776 37.79416994 56.98101204 37.80488766 55.05761719 37.81274414 C52.14273874 37.82984797 49.22902715 37.87371114 46.31445312 37.91796875 C28.24407356 38.07902278 28.24407356 38.07902278 20.60351562 33.51757812 C19.52457031 32.90438721 18.445625 32.29119629 17.33398438 31.65942383 C13.62767827 29.51879658 9.9907072 27.27294207 6.35351562 25.01757812 C5.10132753 24.24997189 3.84872544 23.48304059 2.59570312 22.71679688 C-13.11500566 13.08053555 -13.11500566 13.08053555 -14.39648438 10.51757812 C-14.75994688 7.17372312 -14.84916059 5.23239587 -13.0267334 2.35461426 C-8.91389902 -0.51789907 -4.90218223 -0.03974963 0 0 Z " fill="#624CF5" transform="translate(47.396484375,12.482421875)"/>
<path d="M0 0 C22.44 0 44.88 0 68 0 C61.25683513 12.36246893 61.25683513 12.36246893 58.625 16.515625 C58.03960449 17.44463623 57.45420898 18.37364746 56.85107422 19.33081055 C56.24021973 20.29414307 55.62936523 21.25747559 55 22.25 C49.8945484 30.35817511 44.84193501 38.49370145 39.875 46.6875 C34.63360587 55.33315239 29.33946327 63.94414007 23.99755859 72.52807617 C23.48660645 73.35025635 22.9756543 74.17243652 22.44921875 75.01953125 C21.99893311 75.74245361 21.54864746 76.46537598 21.0847168 77.21020508 C19.96283235 79.00673193 19.96283235 79.00673193 19 81 C23.29239483 80.9182358 27.58345974 80.80547284 31.875 80.6875 C33.07898438 80.66494141 34.28296875 80.64238281 35.5234375 80.61914062 C45.48231862 80.32145668 55.57582179 79.32923987 63 72 C66.8307473 67.13589034 69.02428938 61.82314708 71 56 C71.66 56 72.32 56 73 56 C73.0961625 62.37236805 72.76649832 68.54400798 72.0625 74.875 C71.97548828 75.71546875 71.88847656 76.5559375 71.79882812 77.421875 C71.43411215 80.80427796 71.08074238 83.75777285 70 87 C43.93 87 17.86 87 -9 87 C-7.49594064 83.2398516 -6.14190085 80.41909978 -4.015625 77.0703125 C-3.4175 76.12220703 -2.819375 75.17410156 -2.203125 74.19726562 C-1.55859375 73.18341797 -0.9140625 72.16957031 -0.25 71.125 C1.12095107 68.95125162 2.49071507 66.77675418 3.859375 64.6015625 C4.55353516 63.49844727 5.24769531 62.39533203 5.96289062 61.25878906 C9.02096357 56.36675194 12.01311354 51.43571309 15 46.5 C21.72522339 35.39957395 28.59717303 24.39351057 35.50463867 13.40576172 C37.02954259 10.9524714 38.52031831 8.48078099 40 6 C36.33221462 6.05234536 32.6667003 6.14752842 29 6.25 C27.97003906 6.26417969 26.94007813 6.27835938 25.87890625 6.29296875 C18.3505439 6.53272551 12.87627769 7.80149974 7.01171875 12.640625 C3.53120534 16.8706295 1.65205843 20.76848165 0 26 C-0.66 26 -1.32 26 -2 26 C-1.86089513 22.41637224 -1.71254587 18.83318502 -1.5625 15.25 C-1.52318359 14.23421875 -1.48386719 13.2184375 -1.44335938 12.171875 C-1.40146484 11.1921875 -1.35957031 10.2125 -1.31640625 9.203125 C-1.26141968 7.85202637 -1.26141968 7.85202637 -1.20532227 6.47363281 C-1 4 -1 4 0 0 Z " fill="#040404" transform="translate(530,49)"/>
<path d="M0 0 C24.09 0 48.18 0 73 0 C73 8.58 73 17.16 73 26 C72.01 26 71.02 26 70 26 C69.82984375 25.33613281 69.6596875 24.67226562 69.484375 23.98828125 C67.24597742 15.69941699 67.24597742 15.69941699 61.22265625 9.8515625 C52.52935974 5.54310975 42.45881819 6.25223515 33 6 C33 17.55 33 29.1 33 41 C39.57092735 39.7670815 39.57092735 39.7670815 46 38 C47.13545562 35.70465742 47.13545562 35.70465742 48 33 C48.350625 32.21625 48.70125 31.4325 49.0625 30.625 C50.19877965 27.44341697 50.60622212 24.34711199 51 21 C51.99 21 52.98 21 54 21 C54 35.52 54 50.04 54 65 C53.34 65 52.68 65 52 65 C51.81824219 64.41992188 51.63648438 63.83984375 51.44921875 63.2421875 C48.76258117 53.66328696 48.76258117 53.66328696 42 47 C40.45844455 46.60802695 38.90763609 46.25152793 37.3515625 45.921875 C36.53768066 45.7475293 35.72379883 45.57318359 34.88525391 45.39355469 C34.26312012 45.26368164 33.64098633 45.13380859 33 45 C33.06883588 49.78770673 33.15678029 54.57453659 33.26245117 59.36157227 C33.29570536 60.99005409 33.32373584 62.61865131 33.34643555 64.24731445 C33.37997357 66.58855361 33.43228585 68.92873486 33.48828125 71.26953125 C33.49467117 71.99775589 33.5010611 72.72598053 33.50764465 73.47627258 C33.59271718 76.40087602 33.65999251 78.49959632 35.33056641 80.95825195 C40.23160436 84.01656271 49.4782922 82.42859065 54.96484375 81.49609375 C57.42444781 80.83287232 59.6710248 80.02799089 62 79 C62.62132812 78.74089844 63.24265625 78.48179688 63.8828125 78.21484375 C70.7618847 74.40513336 73.72171622 65.76944312 77 59 C77.66 59 78.32 59 79 59 C78.47288839 68.5970666 76.79245627 77.44023324 75 87 C50.25 87 25.5 87 0 87 C0 86.34 0 85.68 0 85 C0.92232422 84.83564453 0.92232422 84.83564453 1.86328125 84.66796875 C2.67152344 84.50941406 3.47976562 84.35085937 4.3125 84.1875 C5.11300781 84.03667969 5.91351563 83.88585937 6.73828125 83.73046875 C9.43992373 82.85791755 10.33264398 82.30291854 12 80 C12.28039408 77.50662382 12.3794924 75.26611438 12.34057617 72.7746582 C12.34101425 72.04270233 12.34145233 71.31074646 12.34190369 70.55661011 C12.33981398 68.13772895 12.31647515 65.71954129 12.29296875 63.30078125 C12.28737342 61.62355427 12.28310303 59.94632238 12.28010559 58.26908875 C12.26865178 53.85487325 12.23918011 49.44095395 12.20599365 45.02685547 C12.17530425 40.5225017 12.16160268 36.01810006 12.14648438 31.51367188 C12.11431083 22.67565113 12.06310808 13.83785019 12 5 C7.89235608 2.85590015 4.60293063 2.46029306 0 2 C0 1.34 0 0.68 0 0 Z " fill="#030303" transform="translate(193,49)"/>
<path d="M0 0 C5.24880798 2.11886553 8.55615355 4.85673598 11 10 C11.45617349 13.17632881 11.46471945 16.32999691 11.4765625 19.53515625 C11.49214203 20.4508287 11.50772156 21.36650116 11.52377319 22.30992126 C11.57118369 25.22743904 11.59901498 28.1447195 11.625 31.0625 C11.66154784 33.98368261 11.7022205 36.90473252 11.74765015 39.82579041 C11.77476904 41.64094779 11.7961667 43.45620182 11.81118774 45.27149963 C11.82658096 46.50814613 11.82658096 46.50814613 11.84228516 47.76977539 C11.84878082 48.49193741 11.85527649 49.21409943 11.86196899 49.95814514 C12.00828722 52.12259061 12.2666771 53.95470397 13 56 C15.49034386 57.29660434 15.49034386 57.29660434 18 58 C18 58.66 18 59.32 18 60 C8.1 60 -1.8 60 -12 60 C-11 57 -11 57 -8 55 C-7.52573374 53.03009759 -7.52573374 53.03009759 -7.56762695 50.73388672 C-7.54783279 49.85312469 -7.52803864 48.97236267 -7.50764465 48.06491089 C-7.50125473 47.11278717 -7.49486481 46.16066345 -7.48828125 45.1796875 C-7.47033005 44.20589142 -7.45237885 43.23209534 -7.43388367 42.22879028 C-7.37959368 39.11090458 -7.34582509 35.99317355 -7.3125 32.875 C-7.27934343 30.7643013 -7.24485534 28.65362306 -7.20898438 26.54296875 C-7.12385693 21.36211788 -7.05558664 16.18124743 -7 11 C-8.25941406 10.78601563 -9.51882813 10.57203125 -10.81640625 10.3515625 C-11.52482666 10.23119629 -12.23324707 10.11083008 -12.96313477 9.98681641 C-15.36557724 9.79063337 -15.36557724 9.79063337 -17.9375 12.375 C-18.618125 13.24125 -19.29875 14.1075 -20 15 C-20.33 15.33 -20.66 15.66 -21 16 C-21.11348062 18.776556 -21.16418399 21.52729254 -21.16796875 24.3046875 C-21.17129715 25.13960724 -21.17462555 25.97452698 -21.17805481 26.83474731 C-21.18312812 28.60515795 -21.18546301 30.37557819 -21.18530273 32.14599609 C-21.18748519 34.8566059 -21.20562526 37.56680626 -21.22460938 40.27734375 C-21.227544 41.99479027 -21.22952833 43.71223873 -21.23046875 45.4296875 C-21.23765427 46.2422702 -21.24483978 47.05485291 -21.25224304 47.89205933 C-21.2364331 51.78378794 -21.20858526 53.68712211 -19 57 C-17.515 57.495 -17.515 57.495 -16 58 C-16 58.66 -16 59.32 -16 60 C-26.23 60 -36.46 60 -47 60 C-47 59.34 -47 58.68 -47 58 C-45.02 57.01 -43.04 56.02 -41 55 C-41 38.83 -41 22.66 -41 6 C-42.98 5.01 -44.96 4.02 -47 3 C-47 2.34 -47 1.68 -47 1 C-38.75 1 -30.5 1 -22 1 C-21.67 2.98 -21.34 4.96 -21 7 C-20.37351562 6.57847656 -19.74703125 6.15695313 -19.1015625 5.72265625 C-18.28429687 5.17480469 -17.46703125 4.62695312 -16.625 4.0625 C-15.81289063 3.51722656 -15.00078125 2.97195312 -14.1640625 2.41015625 C-9.5393497 -0.60342014 -5.43366297 -0.70597957 0 0 Z " fill="#070707" transform="translate(453,76)"/>
<path d="M0 0 C3.21412704 2.6030461 5.72100843 5.55920435 7.58203125 9.28125 C7.73936374 12.26888355 7.8406454 15.23666151 7.8984375 18.2265625 C7.9192186 19.1115744 7.93999969 19.9965863 7.96141052 20.90841675 C8.02689723 23.74094741 8.08578687 26.57357225 8.14453125 29.40625 C8.18771731 31.32422857 8.23133162 33.24219754 8.27539062 35.16015625 C8.38257772 39.86709051 8.48384765 44.57411967 8.58203125 49.28125 C10.56203125 49.28125 12.54203125 49.28125 14.58203125 49.28125 C14.32364285 52.76949341 13.31736389 53.52339247 10.64453125 55.96875 C7.07557119 58.66367903 5.56002661 59.43259555 1.20703125 59.46875 C0.43617188 59.48292969 -0.3346875 59.49710938 -1.12890625 59.51171875 C-3.69114914 59.25374549 -5.24474579 58.6476756 -7.41796875 57.28125 C-10.41796875 52.99553571 -10.41796875 52.99553571 -10.41796875 50.28125 C-11.15402344 50.76335937 -11.89007812 51.24546875 -12.6484375 51.7421875 C-13.62425781 52.37382812 -14.60007812 53.00546875 -15.60546875 53.65625 C-16.56839844 54.28273437 -17.53132812 54.90921875 -18.5234375 55.5546875 C-23.61547449 58.5920429 -28.41608999 60.46521437 -34.41796875 59.28125 C-37.437684 57.53059612 -39.83363066 55.44992619 -41.41796875 52.28125 C-42.10006446 47.67710397 -42.43747944 43.2389815 -40.2421875 39.0234375 C-32.89714923 30.08317612 -21.64072497 25.15177783 -11.41796875 20.28125 C-11.30998285 17.84256832 -11.23070286 15.40865867 -11.16796875 12.96875 C-11.13445313 12.27845703 -11.1009375 11.58816406 -11.06640625 10.87695312 C-10.98124842 6.7100017 -10.98124842 6.7100017 -13.1796875 3.3203125 C-16.83480973 1.62351928 -19.40124862 1.96246269 -23.41796875 2.28125 C-24.40796875 2.94125 -25.39796875 3.60125 -26.41796875 4.28125 C-25.80519263 7.24300123 -25.16424353 8.66183783 -23.41796875 11.28125 C-22.98046875 14.71875 -22.98046875 14.71875 -23.41796875 18.28125 C-26.11325346 21.46658648 -27.8020232 22.18225875 -31.91796875 22.84375 C-35.41796875 22.28125 -35.41796875 22.28125 -38.35546875 20.28125 C-40.51446404 17.14089321 -41.17438223 15.09154931 -40.88671875 11.265625 C-40.04412516 7.69864549 -38.21687813 5.47817665 -35.41796875 3.28125 C-25.25394181 -2.79417806 -10.88113809 -6.6377313 0 0 Z " fill="#080808" transform="translate(763.41796875,78.71875)"/>
<path d="M0 0 C5.6505525 3.65623985 9.08145024 8.50579395 11 15 C11 18.3 11 21.6 11 25 C0.44 25 -10.12 25 -21 25 C-18.30676125 36.77184278 -18.30676125 36.77184278 -11.75 45.375 C-8.05311715 47.55952168 -5.19429784 47.69193101 -1 47 C3.58248158 45.0817519 6.01726079 41.83495042 9 38 C9.99 38.495 9.99 38.495 11 39 C10.59426018 45.49183705 5.68916963 50.67119802 1.0625 54.875 C-5.0568506 59.12108001 -11.72869671 59.87833786 -19 59 C-25.80047 57.17415034 -30.11856298 53.78609546 -34 48 C-37.64396541 41.56376053 -38.68461533 35.90410011 -38.5625 28.5625 C-38.55226807 27.63743652 -38.54203613 26.71237305 -38.53149414 25.75927734 C-38.31699542 18.88195007 -37.38350845 13.50435492 -33 8 C-32.48050781 7.34 -31.96101563 6.68 -31.42578125 6 C-22.97189229 -3.45889674 -11.27027147 -5.87391267 0 0 Z " fill="#070707" transform="translate(387,79)"/>
<path d="M0 0 C8.25 0 16.5 0 25 0 C25.495 40.59 25.495 40.59 26 82 C27.98 82.99 29.96 83.98 32 85 C32 85.66 32 86.32 32 87 C21.44 87 10.88 87 0 87 C0 86.34 0 85.68 0 85 C0.804375 84.71125 1.60875 84.4225 2.4375 84.125 C5.1326468 83.26737432 5.1326468 83.26737432 6 81 C6.09275395 78.58905638 6.12584719 76.20731681 6.11352539 73.79638672 C6.11367142 73.0548233 6.11381744 72.31325989 6.1139679 71.54922485 C6.11327 69.09268287 6.10548334 66.63621627 6.09765625 64.1796875 C6.09579163 62.4786076 6.09436794 60.77752716 6.09336853 59.07644653 C6.08954678 54.59493533 6.0797194 50.11345643 6.06866455 45.63195801 C6.05844308 41.0606327 6.05386933 36.48930219 6.04882812 31.91796875 C6.03809685 22.94529829 6.02102451 13.97265183 6 5 C4.02 4.01 2.04 3.02 0 2 C0 1.34 0 0.68 0 0 Z " fill="#060606" transform="translate(682,49)"/>
<path d="M0 0 C8.25 0 16.5 0 25 0 C25.01981934 2.33666748 25.03963867 4.67333496 25.06005859 7.08081055 C25.12698825 14.80422057 25.2046275 22.52749625 25.28752708 30.25075054 C25.33745666 34.93300607 25.38378704 39.61523941 25.421875 44.29760742 C25.45876992 48.81699318 25.50514139 53.33619175 25.55806351 57.85541725 C25.57658508 59.57893398 25.5917013 61.30249081 25.60334396 63.02606773 C25.62024474 65.44164543 25.64928875 67.8567965 25.68115234 70.2722168 C25.68331253 70.98359802 25.68547272 71.69497925 25.68769836 72.42791748 C25.75386691 76.35872329 26.10390313 79.52139482 28 83 C30.52372901 84.36078035 30.52372901 84.36078035 33 85 C33 85.66 33 86.32 33 87 C22.11 87 11.22 87 0 87 C0 86.34 0 85.68 0 85 C0.969375 84.525625 1.93875 84.05125 2.9375 83.5625 C5.80477437 82.29806053 5.80477437 82.29806053 7 81 C7.11615584 78.67377602 7.16797102 76.37680995 7.17700195 74.04931641 C7.18685875 72.959049 7.18685875 72.959049 7.19691467 71.84675598 C7.21669114 69.43169056 7.22831937 67.01668742 7.23828125 64.6015625 C7.24235678 63.77878185 7.2464323 62.95600121 7.25063133 62.10828781 C7.2715099 57.75416055 7.28580426 53.40006498 7.29516602 49.04589844 C7.30623882 44.54068958 7.34064322 40.03597353 7.38033772 35.5309391 C7.40644038 32.07373108 7.41485212 28.61664163 7.41844749 25.15934372 C7.42332938 23.49830163 7.4349887 21.83726539 7.45348549 20.17631912 C7.47774502 17.85363597 7.47693695 15.53224279 7.4699707 13.20947266 C7.48278076 12.52052414 7.49559082 11.83157562 7.50878906 11.12174988 C7.47432551 7.97636923 7.39993376 6.40996946 5.15812683 4.11190796 C2.91533924 2.88656306 2.91533924 2.88656306 0 2 C0 1.34 0 0.68 0 0 Z " fill="#010101" transform="translate(645,49)"/>
<path d="M0 0 C0.66 0 1.32 0 2 0 C2 7.26 2 14.52 2 22 C6.62 22 11.24 22 16 22 C16 23.98 16 25.96 16 28 C11.38 28 6.76 28 2 28 C2.09336477 34.37233546 2.19941996 40.74428327 2.31738281 47.11621094 C2.35572991 49.28509693 2.39057255 51.45404777 2.421875 53.62304688 C2.46740138 56.73591332 2.52541573 59.84833106 2.5859375 62.9609375 C2.59748871 63.934935 2.60903992 64.9089325 2.62094116 65.91244507 C2.64081085 66.81322784 2.66068054 67.71401062 2.68115234 68.64208984 C2.69447601 69.43706879 2.70779968 70.23204773 2.7215271 71.05111694 C2.83467008 73.23465372 2.83467008 73.23465372 5 75 C9.39629018 74.76236269 11.77258856 72.85856441 15 70 C15 74.89324037 13.865785 75.99456301 10.70703125 79.44921875 C7.31695806 82.52898776 3.99281541 82.90974405 -0.4375 83.3125 C-5.19016457 82.8955996 -9.1070093 82.12627913 -12.40617371 78.42053223 C-16.20062486 72.77717841 -16.67593867 68.29214972 -16.48828125 61.59375 C-16.48120651 60.6284436 -16.47413177 59.66313721 -16.46684265 58.6685791 C-16.43904686 55.6115687 -16.37633661 52.55644863 -16.3125 49.5 C-16.28739797 47.41669328 -16.26458815 45.3333576 -16.24414062 43.25 C-16.18926877 38.16594792 -16.10309975 33.08329348 -16 28 C-18.64 28 -21.28 28 -24 28 C-24 27.01 -24 26.02 -24 25 C-22.42578125 23.5703125 -22.42578125 23.5703125 -20.3125 22.125 C-13.07865809 16.95070535 -7.27226028 10.37432011 -2.25 3.0625 C-1.5075 2.051875 -0.765 1.04125 0 0 Z " fill="#070707" transform="translate(501,55)"/>
<path d="M0 0 C10.56 0 21.12 0 32 0 C32 0.66 32 1.32 32 2 C30.35 2.33 28.7 2.66 27 3 C27.12265849 9.99153392 29.29931028 15.26939577 32.33447266 21.45556641 C34.6661706 26.21194042 36.48311212 30.91396418 38 36 C38.66 36 39.32 36 40 36 C40.391875 34.783125 40.78375 33.56625 41.1875 32.3125 C42.92567693 27.08133594 44.91119757 21.95492987 46.9140625 16.8203125 C48.6662449 12.26968052 49.09215531 8.88423141 49 4 C46.525 3.01 46.525 3.01 44 2 C44 1.34 44 0.68 44 0 C50.27 0 56.54 0 63 0 C63 0.66 63 1.32 63 2 C61.84177734 2.62841797 61.84177734 2.62841797 60.66015625 3.26953125 C57.36435359 5.41349686 56.77916388 7.03649132 55.4375 10.6875 C54.07193083 14.24651466 52.72591668 17.69524673 50.9375 21.0625 C49.36807328 24.09463242 48.18939744 27.15207333 47.0625 30.375 C45.45434263 34.95351862 43.46325314 39.14462627 41.23046875 43.4453125 C39.49373327 47.05110617 38.19039982 50.77185414 36.89453125 54.5546875 C36.07092823 56.80610885 35.11802154 58.88216184 34 61 C32.68 61 31.36 61 30 61 C28.43589794 57.41736389 26.87379861 53.83385871 25.3125 50.25 C24.85351318 49.19699707 24.39452637 48.14399414 23.92163086 47.05908203 C21.21525875 40.83697346 18.5535677 34.60550397 16.03515625 28.3046875 C14.88010535 25.73306475 13.46438005 23.40660849 12 21 C11.28764825 19.34863913 10.57631927 17.69678769 9.87890625 16.0390625 C8.81366036 13.56769204 7.70963837 11.12209947 6.5625 8.6875 C6.17191406 7.84574219 5.78132813 7.00398438 5.37890625 6.13671875 C3.82762739 3.7328957 2.63556993 3.01281987 0 2 C0 1.34 0 0.68 0 0 Z " fill="#090909" transform="translate(279,77)"/>
<path d="M0 0 C8.25 0 16.5 0 25 0 C25.04898438 3.79113281 25.09796875 7.58226563 25.1484375 11.48828125 C25.20241633 15.15197771 25.25973606 18.81560768 25.31738281 22.47924805 C25.35571278 25.02932806 25.39055848 27.57946289 25.421875 30.12963867 C25.46743799 33.79105243 25.52544738 37.4520875 25.5859375 41.11328125 C25.59748871 42.2571077 25.60903992 43.40093414 25.62094116 44.579422 C25.64081085 45.64029526 25.66068054 46.70116852 25.68115234 47.79418945 C25.69447601 48.72906693 25.70779968 49.6639444 25.7215271 50.62715149 C25.84916728 53.26551607 25.84916728 53.26551607 28 56 C30.05925139 56.72382467 30.05925139 56.72382467 32 57 C32 57.66 32 58.32 32 59 C21.44 59 10.88 59 0 59 C0 58.34 0 57.68 0 57 C1.98 56.34 3.96 55.68 6 55 C6 38.5 6 22 6 5 C4.02 4.01 2.04 3.02 0 2 C0 1.34 0 0.68 0 0 Z " fill="#050505" transform="translate(609,77)"/>
<path d="M0 0 C5.41300273 2.40125685 9.09495644 5.95553789 11.765625 11.296875 C12.26696755 17.73719857 12.74511418 23.90530901 8.765625 29.296875 C4.00903907 34.05346093 0.45251028 36.41978189 -6.421875 36.671875 C-12.22268966 36.61049072 -15.93562845 35.17994087 -20.234375 31.296875 C-24.3820244 26.08572576 -25.64828942 22.09362128 -25.5 15.4453125 C-24.88864311 10.50051413 -22.90160173 6.89279468 -19.31640625 3.4609375 C-13.15991957 -1.18094449 -7.39810421 -2.32807475 0 0 Z " fill="#FA786D" transform="translate(108.234375,69.703125)"/>
<path d="M0 0 C3.46052435 1.03208621 5.09231422 1.74432797 6.91796875 4.8984375 C8.37775723 9.79978791 7.76839923 15.01796896 7.5625 20.0625 C1.9525 20.0625 -3.6575 20.0625 -9.4375 20.0625 C-9.87323265 8.15247429 -9.87323265 8.15247429 -6.4375 3.0625 C-6.025 2.423125 -5.6125 1.78375 -5.1875 1.125 C-3.4375 0.0625 -3.4375 0.0625 0 0 Z " fill="#F5F5F5" transform="translate(375.4375,79.9375)"/>
<path d="M0 0 C2.8100346 1.79363911 4.50940468 3.01880935 6 6 C6.375 8.8125 6.375 8.8125 6 12 C3.5625 14.8125 3.5625 14.8125 1 17 C0.67 17.33 0.34 17.66 0 18 C-7.07616708 18.58968059 -7.07616708 18.58968059 -10.9375 16.125 C-13.38016629 13.60831351 -13.92589802 12.66691781 -14.3125 9.1875 C-13.92835642 5.2692355 -12.70743683 3.78706733 -10 1 C-6.79826746 -0.60086627 -3.47422941 -0.49917089 0 0 Z " fill="#0D0D0D" transform="translate(629,47)"/>
<path d="M0 0 C0.14505175 3.43705705 0.23398014 6.87333033 0.3125 10.3125 C0.3753418 11.77719727 0.3753418 11.77719727 0.43945312 13.27148438 C0.48519899 15.93389381 0.47387997 18.37892367 0 21 C-2.79676179 23.57584111 -4.3892547 23.91449566 -8.125 24.4375 C-11 24 -11 24 -12.875 22.5 C-14.5421947 18.7951229 -15.16817445 15.88071513 -14 12 C-5.42105263 0 -5.42105263 0 0 0 Z " fill="#F4F4F4" transform="translate(753,104)"/>
<path d="M0 0 C0.99 0 1.98 0 3 0 C3 14.52 3 29.04 3 44 C2.67 44 2.34 44 2 44 C1.67 31.46 1.34 18.92 1 6 C0.67 6 0.34 6 0 6 C0 4.02 0 2.04 0 0 Z " fill="#343434" transform="translate(244,70)"/>
<path d="M0 0 C0.66 0 1.32 0 2 0 C1.67 3.96 1.34 7.92 1 12 C0.67 12 0.34 12 0 12 C-0.144375 11.05125 -0.28875 10.1025 -0.4375 9.125 C-0.82935399 6.1065506 -0.82935399 6.1065506 -2 4 C-1.0625 1.875 -1.0625 1.875 0 0 Z " fill="#444444" transform="translate(270,108)"/>
<path d="M0 0 C0.66 0 1.32 0 2 0 C2 2.97 2 5.94 2 9 C1.34 8.01 0.68 7.02 0 6 C-0.99 6.495 -0.99 6.495 -2 7 C-1.34 4.69 -0.68 2.38 0 0 Z " fill="#2D2D2D" transform="translate(601,105)"/>
</svg>
